<svg aria-roledescription="er" role="graphics-document document" viewBox="-3.2045059204101562 0 179.6761474609375 620" style="max-width: 179.676px; background-color: white;" xmlns:xlink="http://www.w3.org/1999/xlink" xmlns="http://www.w3.org/2000/svg" width="100%" id="my-svg"><style>#my-svg{font-family:"trebuchet ms",verdana,arial,sans-serif;font-size:16px;fill:#ccc;}#my-svg .error-icon{fill:#a44141;}#my-svg .error-text{fill:#ddd;stroke:#ddd;}#my-svg .edge-thickness-normal{stroke-width:2px;}#my-svg .edge-thickness-thick{stroke-width:3.5px;}#my-svg .edge-pattern-solid{stroke-dasharray:0;}#my-svg .edge-pattern-dashed{stroke-dasharray:3;}#my-svg .edge-pattern-dotted{stroke-dasharray:2;}#my-svg .marker{fill:lightgrey;stroke:lightgrey;}#my-svg .marker.cross{stroke:lightgrey;}#my-svg svg{font-family:"trebuchet ms",verdana,arial,sans-serif;font-size:16px;}#my-svg .entityBox{fill:#1f2020;stroke:#81B1DB;}#my-svg .attributeBoxOdd{fill:hsl(0, 0%, 32%);stroke:#81B1DB;}#my-svg .attributeBoxEven{fill:hsl(0, 0%, 22%);stroke:#81B1DB;}#my-svg .relationshipLabelBox{fill:hsl(20, 1.5873015873%, 12.3529411765%);opacity:0.7;background-color:hsl(20, 1.5873015873%, 12.3529411765%);}#my-svg .relationshipLabelBox rect{opacity:0.5;}#my-svg .relationshipLine{stroke:lightgrey;}#my-svg .entityTitleText{text-anchor:middle;font-size:18px;fill:#ccc;}#my-svg #MD_PARENT_START{fill:#f5f5f5!important;stroke:lightgrey!important;stroke-width:1;}#my-svg #MD_PARENT_END{fill:#f5f5f5!important;stroke:lightgrey!important;stroke-width:1;}#my-svg :root{--mermaid-font-family:"trebuchet ms",verdana,arial,sans-serif;}</style><g/><defs><marker orient="auto" markerHeight="240" markerWidth="190" refY="7" refX="0" id="MD_PARENT_START"><path d="M 18,7 L9,13 L1,7 L9,1 Z"/></marker></defs><defs><marker orient="auto" markerHeight="28" markerWidth="20" refY="7" refX="19" id="MD_PARENT_END"><path d="M 18,7 L9,13 L1,7 L9,1 Z"/></marker></defs><defs><marker orient="auto" markerHeight="18" markerWidth="18" refY="9" refX="0" id="ONLY_ONE_START"><path d="M9,0 L9,18 M15,0 L15,18" fill="none" stroke="gray"/></marker></defs><defs><marker orient="auto" markerHeight="18" markerWidth="18" refY="9" refX="18" id="ONLY_ONE_END"><path d="M3,0 L3,18 M9,0 L9,18" fill="none" stroke="gray"/></marker></defs><defs><marker orient="auto" markerHeight="18" markerWidth="30" refY="9" refX="0" id="ZERO_OR_ONE_START"><circle r="6" cy="9" cx="21" fill="white" stroke="gray"/><path d="M9,0 L9,18" fill="none" stroke="gray"/></marker></defs><defs><marker orient="auto" markerHeight="18" markerWidth="30" refY="9" refX="30" id="ZERO_OR_ONE_END"><circle r="6" cy="9" cx="9" fill="white" stroke="gray"/><path d="M21,0 L21,18" fill="none" stroke="gray"/></marker></defs><defs><marker orient="auto" markerHeight="36" markerWidth="45" refY="18" refX="18" id="ONE_OR_MORE_START"><path d="M0,18 Q 18,0 36,18 Q 18,36 0,18 M42,9 L42,27" fill="none" stroke="gray"/></marker></defs><defs><marker orient="auto" markerHeight="36" markerWidth="45" refY="18" refX="27" id="ONE_OR_MORE_END"><path d="M3,9 L3,27 M9,18 Q27,0 45,18 Q27,36 9,18" fill="none" stroke="gray"/></marker></defs><defs><marker orient="auto" markerHeight="36" markerWidth="57" refY="18" refX="18" id="ZERO_OR_MORE_START"><circle r="6" cy="18" cx="48" fill="white" stroke="gray"/><path d="M0,18 Q18,0 36,18 Q18,36 0,18" fill="none" stroke="gray"/></marker></defs><defs><marker orient="auto" markerHeight="36" markerWidth="57" refY="18" refX="39" id="ZERO_OR_MORE_END"><circle r="6" cy="18" cx="9" fill="white" stroke="gray"/><path d="M21,18 Q39,0 57,18 Q39,36 21,18" fill="none" stroke="gray"/></marker></defs><path style="stroke: gray; fill: none;" marker-start="url(#ZERO_OR_MORE_START)" marker-end="url(#ZERO_OR_MORE_END)" d="M61.50619319699845,132L57.57537558693556,140.33333333333334C53.64455797687267,148.66666666666666,45.78292275674688,165.33333333333334,44.84970706514921,182C43.916491373551544,198.66666666666666,49.911695210482,215.33333333333334,52.90929712894723,223.66666666666666L55.90689904741246,232" class="er relationshipLine"/><path style="stroke: gray; fill: none;" marker-start="url(#ZERO_OR_ONE_START)" marker-end="url(#ONLY_ONE_END)" d="M111.60549806293689,510L115.99146297521759,501.6666666666667C120.37742788749829,493.3333333333333,129.1493577120597,476.6666666666667,130.53772070587516,460C131.92608369969062,443.3333333333333,125.9308798627602,426.6666666666667,122.93327794429496,418.3333333333333L119.93567602582974,410" class="er relationshipLine"/><path style="stroke: gray; fill: none;" marker-start="url(#ZERO_OR_ONE_START)" marker-end="url(#ONLY_ONE_END)" d="M119.93567602582974,232L122.93327794429496,223.66666666666666C125.9308798627602,215.33333333333334,131.92608369969062,198.66666666666666,130.99286800809298,182C130.05965231649532,165.33333333333334,122.19801709636953,148.66666666666666,118.26719948630664,140.33333333333334L114.33638187624373,132" class="er relationshipLine"/><path style="stroke: gray; fill: none;" marker-start="url(#ZERO_OR_MORE_START)" marker-end="url(#ZERO_OR_MORE_END)" d="M55.90689904741246,410L52.90929712894723,418.3333333333333C49.911695210482,426.6666666666667,43.916491373551544,443.3333333333333,45.30485436736702,460C46.6932173611825,476.6666666666667,55.465147185743895,493.3333333333333,59.8511120980246,501.6666666666667L64.2370770103053,510" class="er relationshipLine"/><g transform="translate(31.05170440673828,20 )" id="entity-User-818c511a-4a32-5484-ba70-875d765a9175"><rect height="112" width="113.73916625976562" y="0" x="0" class="er entityBox"/><text style="dominant-baseline: middle; text-anchor: middle; font-size: 12px;" transform="translate(56.86958312988281,12)" y="0" x="0" id="text-entity-User-818c511a-4a32-5484-ba70-875d765a9175" class="er entityLabel">User</text><rect height="22" width="37.39605712890625" y="24" x="0" class="er attributeBoxOdd"/><text style="dominant-baseline: middle; font-size: 10.2px;" transform="translate(5,35)" y="0" x="0" id="text-entity-User-818c511a-4a32-5484-ba70-875d765a9175-attr-1-type" class="er entityLabel">String</text><rect height="22" width="52.327484130859375" y="24" x="37.39605712890625" class="er attributeBoxOdd"/><text style="dominant-baseline: middle; font-size: 10.2px;" transform="translate(42.39605712890625,35)" y="0" x="0" id="text-entity-User-818c511a-4a32-5484-ba70-875d765a9175-attr-1-name" class="er entityLabel">id</text><rect height="22" width="24.015625" y="24" x="89.72354125976562" class="er attributeBoxOdd"/><text style="dominant-baseline: middle; font-size: 10.2px;" transform="translate(94.72354125976562,35)" y="0" x="0" id="text-entity-User-818c511a-4a32-5484-ba70-875d765a9175-attr-1-comment" class="er entityLabel">🗝️</text><rect height="22" width="37.39605712890625" y="46" x="0" class="er attributeBoxEven"/><text style="dominant-baseline: middle; font-size: 10.2px;" transform="translate(5,57)" y="0" x="0" id="text-entity-User-818c511a-4a32-5484-ba70-875d765a9175-attr-2-type" class="er entityLabel">String</text><rect height="22" width="52.327484130859375" y="46" x="37.39605712890625" class="er attributeBoxEven"/><text style="dominant-baseline: middle; font-size: 10.2px;" transform="translate(42.39605712890625,57)" y="0" x="0" id="text-entity-User-818c511a-4a32-5484-ba70-875d765a9175-attr-2-name" class="er entityLabel">name</text><rect height="22" width="24.015625" y="46" x="89.72354125976562" class="er attributeBoxEven"/><text style="dominant-baseline: middle; font-size: 10.2px;" transform="translate(94.72354125976562,57)" y="0" x="0" id="text-entity-User-818c511a-4a32-5484-ba70-875d765a9175-attr-2-comment" class="er entityLabel"/><rect height="22" width="37.39605712890625" y="68" x="0" class="er attributeBoxOdd"/><text style="dominant-baseline: middle; font-size: 10.2px;" transform="translate(5,79)" y="0" x="0" id="text-entity-User-818c511a-4a32-5484-ba70-875d765a9175-attr-3-type" class="er entityLabel">String</text><rect height="22" width="52.327484130859375" y="68" x="37.39605712890625" class="er attributeBoxOdd"/><text style="dominant-baseline: middle; font-size: 10.2px;" transform="translate(42.39605712890625,79)" y="0" x="0" id="text-entity-User-818c511a-4a32-5484-ba70-875d765a9175-attr-3-name" class="er entityLabel">email</text><rect height="22" width="24.015625" y="68" x="89.72354125976562" class="er attributeBoxOdd"/><text style="dominant-baseline: middle; font-size: 10.2px;" transform="translate(94.72354125976562,79)" y="0" x="0" id="text-entity-User-818c511a-4a32-5484-ba70-875d765a9175-attr-3-comment" class="er entityLabel"/><rect height="22" width="37.39605712890625" y="90" x="0" class="er attributeBoxEven"/><text style="dominant-baseline: middle; font-size: 10.2px;" transform="translate(5,101)" y="0" x="0" id="text-entity-User-818c511a-4a32-5484-ba70-875d765a9175-attr-4-type" class="er entityLabel">String</text><rect height="22" width="52.327484130859375" y="90" x="37.39605712890625" class="er attributeBoxEven"/><text style="dominant-baseline: middle; font-size: 10.2px;" transform="translate(42.39605712890625,101)" y="0" x="0" id="text-entity-User-818c511a-4a32-5484-ba70-875d765a9175-attr-4-name" class="er entityLabel">password</text><rect height="22" width="24.015625" y="90" x="89.72354125976562" class="er attributeBoxEven"/><text style="dominant-baseline: middle; font-size: 10.2px;" transform="translate(94.72354125976562,101)" y="0" x="0" id="text-entity-User-818c511a-4a32-5484-ba70-875d765a9175-attr-4-comment" class="er entityLabel"/></g><g transform="translate(23.327003479003906,510 )" id="entity-Image-5faf0420-a27f-5ed3-8f82-b959b40ae52f"><rect height="90" width="129.18856811523438" y="0" x="0" class="er entityBox"/><text style="dominant-baseline: middle; text-anchor: middle; font-size: 12px;" transform="translate(64.59428405761719,12)" y="0" x="0" id="text-entity-Image-5faf0420-a27f-5ed3-8f82-b959b40ae52f" class="er entityLabel">Image</text><rect height="22" width="37.39605712890625" y="24" x="0" class="er attributeBoxOdd"/><text style="dominant-baseline: middle; font-size: 10.2px;" transform="translate(5,35)" y="0" x="0" id="text-entity-Image-5faf0420-a27f-5ed3-8f82-b959b40ae52f-attr-1-type" class="er entityLabel">String</text><rect height="22" width="67.77688598632812" y="24" x="37.39605712890625" class="er attributeBoxOdd"/><text style="dominant-baseline: middle; font-size: 10.2px;" transform="translate(42.39605712890625,35)" y="0" x="0" id="text-entity-Image-5faf0420-a27f-5ed3-8f82-b959b40ae52f-attr-1-name" class="er entityLabel">id</text><rect height="22" width="24.015625" y="24" x="105.17294311523438" class="er attributeBoxOdd"/><text style="dominant-baseline: middle; font-size: 10.2px;" transform="translate(110.17294311523438,35)" y="0" x="0" id="text-entity-Image-5faf0420-a27f-5ed3-8f82-b959b40ae52f-attr-1-comment" class="er entityLabel">🗝️</text><rect height="22" width="37.39605712890625" y="46" x="0" class="er attributeBoxEven"/><text style="dominant-baseline: middle; font-size: 10.2px;" transform="translate(5,57)" y="0" x="0" id="text-entity-Image-5faf0420-a27f-5ed3-8f82-b959b40ae52f-attr-2-type" class="er entityLabel">String</text><rect height="22" width="67.77688598632812" y="46" x="37.39605712890625" class="er attributeBoxEven"/><text style="dominant-baseline: middle; font-size: 10.2px;" transform="translate(42.39605712890625,57)" y="0" x="0" id="text-entity-Image-5faf0420-a27f-5ed3-8f82-b959b40ae52f-attr-2-name" class="er entityLabel">campaign_id</text><rect height="22" width="24.015625" y="46" x="105.17294311523438" class="er attributeBoxEven"/><text style="dominant-baseline: middle; font-size: 10.2px;" transform="translate(110.17294311523438,57)" y="0" x="0" id="text-entity-Image-5faf0420-a27f-5ed3-8f82-b959b40ae52f-attr-2-comment" class="er entityLabel"/><rect height="22" width="37.39605712890625" y="68" x="0" class="er attributeBoxOdd"/><text style="dominant-baseline: middle; font-size: 10.2px;" transform="translate(5,79)" y="0" x="0" id="text-entity-Image-5faf0420-a27f-5ed3-8f82-b959b40ae52f-attr-3-type" class="er entityLabel">String</text><rect height="22" width="67.77688598632812" y="68" x="37.39605712890625" class="er attributeBoxOdd"/><text style="dominant-baseline: middle; font-size: 10.2px;" transform="translate(42.39605712890625,79)" y="0" x="0" id="text-entity-Image-5faf0420-a27f-5ed3-8f82-b959b40ae52f-attr-3-name" class="er entityLabel">url</text><rect height="22" width="24.015625" y="68" x="105.17294311523438" class="er attributeBoxOdd"/><text style="dominant-baseline: middle; font-size: 10.2px;" transform="translate(110.17294311523438,79)" y="0" x="0" id="text-entity-Image-5faf0420-a27f-5ed3-8f82-b959b40ae52f-attr-3-comment" class="er entityLabel"/></g><g transform="translate(20,232 )" id="entity-Campaign-64f30186-f480-5bad-b69c-14b35806462f"><rect height="178" width="135.8425750732422" y="0" x="0" class="er entityBox"/><text style="dominant-baseline: middle; text-anchor: middle; font-size: 12px;" transform="translate(67.9212875366211,12)" y="0" x="0" id="text-entity-Campaign-64f30186-f480-5bad-b69c-14b35806462f" class="er entityLabel">Campaign</text><rect height="22" width="46.625" y="24" x="0" class="er attributeBoxOdd"/><text style="dominant-baseline: middle; font-size: 10.2px;" transform="translate(5,35)" y="0" x="0" id="text-entity-Campaign-64f30186-f480-5bad-b69c-14b35806462f-attr-1-type" class="er entityLabel">String</text><rect height="22" width="65.20195007324219" y="24" x="46.625" class="er attributeBoxOdd"/><text style="dominant-baseline: middle; font-size: 10.2px;" transform="translate(51.625,35)" y="0" x="0" id="text-entity-Campaign-64f30186-f480-5bad-b69c-14b35806462f-attr-1-name" class="er entityLabel">id</text><rect height="22" width="24.015625" y="24" x="111.82695007324219" class="er attributeBoxOdd"/><text style="dominant-baseline: middle; font-size: 10.2px;" transform="translate(116.82695007324219,35)" y="0" x="0" id="text-entity-Campaign-64f30186-f480-5bad-b69c-14b35806462f-attr-1-comment" class="er entityLabel">🗝️</text><rect height="22" width="46.625" y="46" x="0" class="er attributeBoxEven"/><text style="dominant-baseline: middle; font-size: 10.2px;" transform="translate(5,57)" y="0" x="0" id="text-entity-Campaign-64f30186-f480-5bad-b69c-14b35806462f-attr-2-type" class="er entityLabel">String</text><rect height="22" width="65.20195007324219" y="46" x="46.625" class="er attributeBoxEven"/><text style="dominant-baseline: middle; font-size: 10.2px;" transform="translate(51.625,57)" y="0" x="0" id="text-entity-Campaign-64f30186-f480-5bad-b69c-14b35806462f-attr-2-name" class="er entityLabel">user_id</text><rect height="22" width="24.015625" y="46" x="111.82695007324219" class="er attributeBoxEven"/><text style="dominant-baseline: middle; font-size: 10.2px;" transform="translate(116.82695007324219,57)" y="0" x="0" id="text-entity-Campaign-64f30186-f480-5bad-b69c-14b35806462f-attr-2-comment" class="er entityLabel"/><rect height="22" width="46.625" y="68" x="0" class="er attributeBoxOdd"/><text style="dominant-baseline: middle; font-size: 10.2px;" transform="translate(5,79)" y="0" x="0" id="text-entity-Campaign-64f30186-f480-5bad-b69c-14b35806462f-attr-3-type" class="er entityLabel">String</text><rect height="22" width="65.20195007324219" y="68" x="46.625" class="er attributeBoxOdd"/><text style="dominant-baseline: middle; font-size: 10.2px;" transform="translate(51.625,79)" y="0" x="0" id="text-entity-Campaign-64f30186-f480-5bad-b69c-14b35806462f-attr-3-name" class="er entityLabel">title</text><rect height="22" width="24.015625" y="68" x="111.82695007324219" class="er attributeBoxOdd"/><text style="dominant-baseline: middle; font-size: 10.2px;" transform="translate(116.82695007324219,79)" y="0" x="0" id="text-entity-Campaign-64f30186-f480-5bad-b69c-14b35806462f-attr-3-comment" class="er entityLabel"/><rect height="22" width="46.625" y="90" x="0" class="er attributeBoxEven"/><text style="dominant-baseline: middle; font-size: 10.2px;" transform="translate(5,101)" y="0" x="0" id="text-entity-Campaign-64f30186-f480-5bad-b69c-14b35806462f-attr-4-type" class="er entityLabel">String</text><rect height="22" width="65.20195007324219" y="90" x="46.625" class="er attributeBoxEven"/><text style="dominant-baseline: middle; font-size: 10.2px;" transform="translate(51.625,101)" y="0" x="0" id="text-entity-Campaign-64f30186-f480-5bad-b69c-14b35806462f-attr-4-name" class="er entityLabel">description</text><rect height="22" width="24.015625" y="90" x="111.82695007324219" class="er attributeBoxEven"/><text style="dominant-baseline: middle; font-size: 10.2px;" transform="translate(116.82695007324219,101)" y="0" x="0" id="text-entity-Campaign-64f30186-f480-5bad-b69c-14b35806462f-attr-4-comment" class="er entityLabel"/><rect height="22" width="46.625" y="112" x="0" class="er attributeBoxOdd"/><text style="dominant-baseline: middle; font-size: 10.2px;" transform="translate(5,123)" y="0" x="0" id="text-entity-Campaign-64f30186-f480-5bad-b69c-14b35806462f-attr-5-type" class="er entityLabel">Decimal</text><rect height="22" width="65.20195007324219" y="112" x="46.625" class="er attributeBoxOdd"/><text style="dominant-baseline: middle; font-size: 10.2px;" transform="translate(51.625,123)" y="0" x="0" id="text-entity-Campaign-64f30186-f480-5bad-b69c-14b35806462f-attr-5-name" class="er entityLabel">goal</text><rect height="22" width="24.015625" y="112" x="111.82695007324219" class="er attributeBoxOdd"/><text style="dominant-baseline: middle; font-size: 10.2px;" transform="translate(116.82695007324219,123)" y="0" x="0" id="text-entity-Campaign-64f30186-f480-5bad-b69c-14b35806462f-attr-5-comment" class="er entityLabel"/><rect height="22" width="46.625" y="134" x="0" class="er attributeBoxEven"/><text style="dominant-baseline: middle; font-size: 10.2px;" transform="translate(5,145)" y="0" x="0" id="text-entity-Campaign-64f30186-f480-5bad-b69c-14b35806462f-attr-6-type" class="er entityLabel">Decimal</text><rect height="22" width="65.20195007324219" y="134" x="46.625" class="er attributeBoxEven"/><text style="dominant-baseline: middle; font-size: 10.2px;" transform="translate(51.625,145)" y="0" x="0" id="text-entity-Campaign-64f30186-f480-5bad-b69c-14b35806462f-attr-6-name" class="er entityLabel">total_raised</text><rect height="22" width="24.015625" y="134" x="111.82695007324219" class="er attributeBoxEven"/><text style="dominant-baseline: middle; font-size: 10.2px;" transform="translate(116.82695007324219,145)" y="0" x="0" id="text-entity-Campaign-64f30186-f480-5bad-b69c-14b35806462f-attr-6-comment" class="er entityLabel"/><rect height="22" width="46.625" y="156" x="0" class="er attributeBoxOdd"/><text style="dominant-baseline: middle; font-size: 10.2px;" transform="translate(5,167)" y="0" x="0" id="text-entity-Campaign-64f30186-f480-5bad-b69c-14b35806462f-attr-7-type" class="er entityLabel">String</text><rect height="22" width="65.20195007324219" y="156" x="46.625" class="er attributeBoxOdd"/><text style="dominant-baseline: middle; font-size: 10.2px;" transform="translate(51.625,167)" y="0" x="0" id="text-entity-Campaign-64f30186-f480-5bad-b69c-14b35806462f-attr-7-name" class="er entityLabel">pix_key</text><rect height="22" width="24.015625" y="156" x="111.82695007324219" class="er attributeBoxOdd"/><text style="dominant-baseline: middle; font-size: 10.2px;" transform="translate(116.82695007324219,167)" y="0" x="0" id="text-entity-Campaign-64f30186-f480-5bad-b69c-14b35806462f-attr-7-comment" class="er entityLabel"/></g><rect height="14" width="56.19921875" y="174.26902770996094" x="16.795494079589844" class="er relationshipLabelBox"/><text style="text-anchor: middle; dominant-baseline: middle; font-size: 12px;" y="181.26902770996094" x="44.895103454589844" id="rel1" class="er relationshipLabel">campaigns</text><rect height="14" width="51.642578125" y="454.14630126953125" x="104.60934448242188" class="er relationshipLabelBox"/><text style="text-anchor: middle; dominant-baseline: middle; font-size: 12px;" y="461.14630126953125" x="130.43063354492188" id="rel2" class="er relationshipLabel">campaign</text><rect height="14" width="23.958984375" y="174.26902770996094" x="118.96798706054688" class="er relationshipLabelBox"/><text style="text-anchor: middle; dominant-baseline: middle; font-size: 12px;" y="181.26902770996094" x="130.94747924804688" id="rel3" class="er relationshipLabel">user</text><rect height="14" width="37.255859375" y="454.14630126953125" x="26.78400421142578" class="er relationshipLabelBox"/><text style="text-anchor: middle; dominant-baseline: middle; font-size: 12px;" y="461.14630126953125" x="45.41193389892578" id="rel4" class="er relationshipLabel">images</text></svg>